{
	"header": {
		"formatType": 1,
		"trackCount": 2,
		"ticksPerBeat": 96
	},
	"tracks": [
		[{
			"deltaTime": 0,
			"type": "meta",
			"subtype": "setTempo",
			"microsecondsPerBeat": 340909
		}, {
			"deltaTime": 0,
			"type": "meta",
			"subtype": "timeSignature",
			"numerator": 4,
			"denominator": 4,
			"metronome": 24,
			"thirtyseconds": 8
		}, {
			"deltaTime": 0,
			"type": "meta",
			"subtype": "endOfTrack"
		}],
		[{
			"deltaTime": 0,
			"type": "meta",
			"subtype": "trackName",
			"text": "PsyLead 1"
		}, {
			"deltaTime": 0,
			"channel": 0,
			"type": "channel",
			"noteNumber": 67,
			"velocity": 62,
			"subtype": "noteOn"
		}, {
			"deltaTime": 64,
			"channel": 0,
			"type": "channel",
			"noteNumber": 66,
			"velocity": 49,
			"subtype": "noteOn"
		}, {
			"deltaTime": 32,
			"channel": 0,
			"type": "channel",
			"noteNumber": 62,
			"velocity": 68,
			"subtype": "noteOn"
		}, {
			"deltaTime": 8,
			"channel": 0,
			"type": "channel",
			"subtype": "noteOff",
			"noteNumber": 67,
			"velocity": 64
		}, {
			"deltaTime": 56,
			"channel": 0,
			"type": "channel",
			"noteNumber": 59,
			"velocity": 36,
			"subtype": "noteOn"
		}, {
			"deltaTime": 8,
			"channel": 0,
			"type": "channel",
			"subtype": "noteOff",
			"noteNumber": 66,
			"velocity": 64
		}, {
			"deltaTime": 24,
			"channel": 0,
			"type": "channel",
			"noteNumber": 67,
			"velocity": 54,
			"subtype": "noteOn"
		}, {
			"deltaTime": 8,
			"channel": 0,
			"type": "channel",
			"subtype": "noteOff",
			"noteNumber": 62,
			"velocity": 64
		}, {
			"deltaTime": 56,
			"channel": 0,
			"type": "channel",
			"noteNumber": 66,
			"velocity": 67,
			"subtype": "noteOn"
		}, {
			"deltaTime": 8,
			"channel": 0,
			"type": "channel",
			"subtype": "noteOff",
			"noteNumber": 59,
			"velocity": 64
		}, {
			"deltaTime": 24,
			"channel": 0,
			"type": "channel",
			"noteNumber": 62,
			"velocity": 51,
			"subtype": "noteOn"
		}, {
			"deltaTime": 8,
			"channel": 0,
			"type": "channel",
			"subtype": "noteOff",
			"noteNumber": 67,
			"velocity": 64
		}, {
			"deltaTime": 56,
			"channel": 0,
			"type": "channel",
			"noteNumber": 59,
			"velocity": 67,
			"subtype": "noteOn"
		}, {
			"deltaTime": 8,
			"channel": 0,
			"type": "channel",
			"subtype": "noteOff",
			"noteNumber": 66,
			"velocity": 64
		}, {
			"deltaTime": 24,
			"channel": 0,
			"type": "channel",
			"noteNumber": 67,
			"velocity": 77,
			"subtype": "noteOn"
		}, {
			"deltaTime": 8,
			"channel": 0,
			"type": "channel",
			"subtype": "noteOff",
			"noteNumber": 62,
			"velocity": 64
		}, {
			"deltaTime": 56,
			"channel": 0,
			"type": "channel",
			"noteNumber": 66,
			"velocity": 72,
			"subtype": "noteOn"
		}, {
			"deltaTime": 8,
			"channel": 0,
			"type": "channel",
			"subtype": "noteOff",
			"noteNumber": 59,
			"velocity": 64
		}, {
			"deltaTime": 24,
			"channel": 0,
			"type": "channel",
			"noteNumber": 62,
			"velocity": 67,
			"subtype": "noteOn"
		}, {
			"deltaTime": 8,
			"channel": 0,
			"type": "channel",
			"subtype": "noteOff",
			"noteNumber": 67,
			"velocity": 64
		}, {
			"deltaTime": 56,
			"channel": 0,
			"type": "channel",
			"noteNumber": 59,
			"velocity": 45,
			"subtype": "noteOn"
		}, {
			"deltaTime": 8,
			"channel": 0,
			"type": "channel",
			"subtype": "noteOff",
			"noteNumber": 66,
			"velocity": 64
		}, {
			"deltaTime": 24,
			"channel": 0,
			"type": "channel",
			"noteNumber": 67,
			"velocity": 36,
			"subtype": "noteOn"
		}, {
			"deltaTime": 8,
			"channel": 0,
			"type": "channel",
			"subtype": "noteOff",
			"noteNumber": 62,
			"velocity": 64
		}, {
			"deltaTime": 56,
			"channel": 0,
			"type": "channel",
			"noteNumber": 66,
			"velocity": 49,
			"subtype": "noteOn"
		}, {
			"deltaTime": 8,
			"channel": 0,
			"type": "channel",
			"subtype": "noteOff",
			"noteNumber": 59,
			"velocity": 64
		}, {
			"deltaTime": 24,
			"channel": 0,
			"type": "channel",
			"noteNumber": 62,
			"velocity": 54,
			"subtype": "noteOn"
		}, {
			"deltaTime": 8,
			"channel": 0,
			"type": "channel",
			"subtype": "noteOff",
			"noteNumber": 67,
			"velocity": 64
		}, {
			"deltaTime": 56,
			"channel": 0,
			"type": "channel",
			"noteNumber": 59,
			"velocity": 71,
			"subtype": "noteOn"
		}, {
			"deltaTime": 8,
			"channel": 0,
			"type": "channel",
			"subtype": "noteOff",
			"noteNumber": 66,
			"velocity": 64
		}, {
			"deltaTime": 24,
			"channel": 0,
			"type": "channel",
			"noteNumber": 67,
			"velocity": 58,
			"subtype": "noteOn"
		}, {
			"deltaTime": 8,
			"channel": 0,
			"type": "channel",
			"subtype": "noteOff",
			"noteNumber": 62,
			"velocity": 64
		}, {
			"deltaTime": 56,
			"channel": 0,
			"type": "channel",
			"noteNumber": 66,
			"velocity": 56,
			"subtype": "noteOn"
		}, {
			"deltaTime": 8,
			"channel": 0,
			"type": "channel",
			"subtype": "noteOff",
			"noteNumber": 59,
			"velocity": 64
		}, {
			"deltaTime": 24,
			"channel": 0,
			"type": "channel",
			"noteNumber": 62,
			"velocity": 28,
			"subtype": "noteOn"
		}, {
			"deltaTime": 8,
			"channel": 0,
			"type": "channel",
			"subtype": "noteOff",
			"noteNumber": 67,
			"velocity": 64
		}, {
			"deltaTime": 56,
			"channel": 0,
			"type": "channel",
			"noteNumber": 59,
			"velocity": 67,
			"subtype": "noteOn"
		}, {
			"deltaTime": 8,
			"channel": 0,
			"type": "channel",
			"subtype": "noteOff",
			"noteNumber": 66,
			"velocity": 64
		}, {
			"deltaTime": 24,
			"channel": 0,
			"type": "channel",
			"noteNumber": 67,
			"velocity": 57,
			"subtype": "noteOn"
		}, {
			"deltaTime": 8,
			"channel": 0,
			"type": "channel",
			"subtype": "noteOff",
			"noteNumber": 62,
			"velocity": 64
		}, {
			"deltaTime": 56,
			"channel": 0,
			"type": "channel",
			"noteNumber": 66,
			"velocity": 34,
			"subtype": "noteOn"
		}, {
			"deltaTime": 8,
			"channel": 0,
			"type": "channel",
			"subtype": "noteOff",
			"noteNumber": 59,
			"velocity": 64
		}, {
			"deltaTime": 24,
			"channel": 0,
			"type": "channel",
			"noteNumber": 62,
			"velocity": 50,
			"subtype": "noteOn"
		}, {
			"deltaTime": 8,
			"channel": 0,
			"type": "channel",
			"subtype": "noteOff",
			"noteNumber": 67,
			"velocity": 64
		}, {
			"deltaTime": 56,
			"channel": 0,
			"type": "channel",
			"noteNumber": 59,
			"velocity": 47,
			"subtype": "noteOn"
		}, {
			"deltaTime": 8,
			"channel": 0,
			"type": "channel",
			"subtype": "noteOff",
			"noteNumber": 66,
			"velocity": 64
		}, {
			"deltaTime": 24,
			"channel": 0,
			"type": "channel",
			"noteNumber": 67,
			"velocity": 62,
			"subtype": "noteOn"
		}, {
			"deltaTime": 8,
			"channel": 0,
			"type": "channel",
			"subtype": "noteOff",
			"noteNumber": 62,
			"velocity": 64
		}, {
			"deltaTime": 56,
			"channel": 0,
			"type": "channel",
			"noteNumber": 66,
			"velocity": 49,
			"subtype": "noteOn"
		}, {
			"deltaTime": 8,
			"channel": 0,
			"type": "channel",
			"subtype": "noteOff",
			"noteNumber": 59,
			"velocity": 64
		}, {
			"deltaTime": 24,
			"channel": 0,
			"type": "channel",
			"noteNumber": 62,
			"velocity": 68,
			"subtype": "noteOn"
		}, {
			"deltaTime": 8,
			"channel": 0,
			"type": "channel",
			"subtype": "noteOff",
			"noteNumber": 67,
			"velocity": 64
		}, {
			"deltaTime": 56,
			"channel": 0,
			"type": "channel",
			"noteNumber": 59,
			"velocity": 36,
			"subtype": "noteOn"
		}, {
			"deltaTime": 8,
			"channel": 0,
			"type": "channel",
			"subtype": "noteOff",
			"noteNumber": 66,
			"velocity": 64
		}, {
			"deltaTime": 24,
			"channel": 0,
			"type": "channel",
			"noteNumber": 67,
			"velocity": 54,
			"subtype": "noteOn"
		}, {
			"deltaTime": 8,
			"channel": 0,
			"type": "channel",
			"subtype": "noteOff",
			"noteNumber": 62,
			"velocity": 64
		}, {
			"deltaTime": 56,
			"channel": 0,
			"type": "channel",
			"noteNumber": 66,
			"velocity": 67,
			"subtype": "noteOn"
		}, {
			"deltaTime": 8,
			"channel": 0,
			"type": "channel",
			"subtype": "noteOff",
			"noteNumber": 59,
			"velocity": 64
		}, {
			"deltaTime": 24,
			"channel": 0,
			"type": "channel",
			"noteNumber": 62,
			"velocity": 51,
			"subtype": "noteOn"
		}, {
			"deltaTime": 8,
			"channel": 0,
			"type": "channel",
			"subtype": "noteOff",
			"noteNumber": 67,
			"velocity": 64
		}, {
			"deltaTime": 56,
			"channel": 0,
			"type": "channel",
			"subtype": "noteOff",
			"noteNumber": 66,
			"velocity": 64
		}, {
			"deltaTime": 0,
			"channel": 0,
			"type": "channel",
			"noteNumber": 59,
			"velocity": 67,
			"subtype": "noteOn"
		}, {
			"deltaTime": 16,
			"channel": 0,
			"type": "channel",
			"subtype": "noteOff",
			"noteNumber": 62,
			"velocity": 64
		}, {
			"deltaTime": 16,
			"channel": 0,
			"type": "channel",
			"noteNumber": 67,
			"velocity": 62,
			"subtype": "noteOn"
		}, {
			"deltaTime": 8,
			"channel": 0,
			"type": "channel",
			"subtype": "noteOff",
			"noteNumber": 59,
			"velocity": 64
		}, {
			"deltaTime": 56,
			"channel": 0,
			"type": "channel",
			"noteNumber": 66,
			"velocity": 49,
			"subtype": "noteOn"
		}, {
			"deltaTime": 32,
			"channel": 0,
			"type": "channel",
			"noteNumber": 62,
			"velocity": 68,
			"subtype": "noteOn"
		}, {
			"deltaTime": 8,
			"channel": 0,
			"type": "channel",
			"subtype": "noteOff",
			"noteNumber": 67,
			"velocity": 64
		}, {
			"deltaTime": 56,
			"channel": 0,
			"type": "channel",
			"noteNumber": 59,
			"velocity": 36,
			"subtype": "noteOn"
		}, {
			"deltaTime": 8,
			"channel": 0,
			"type": "channel",
			"subtype": "noteOff",
			"noteNumber": 66,
			"velocity": 64
		}, {
			"deltaTime": 24,
			"channel": 0,
			"type": "channel",
			"noteNumber": 67,
			"velocity": 54,
			"subtype": "noteOn"
		}, {
			"deltaTime": 8,
			"channel": 0,
			"type": "channel",
			"subtype": "noteOff",
			"noteNumber": 62,
			"velocity": 64
		}, {
			"deltaTime": 56,
			"channel": 0,
			"type": "channel",
			"noteNumber": 66,
			"velocity": 67,
			"subtype": "noteOn"
		}, {
			"deltaTime": 8,
			"channel": 0,
			"type": "channel",
			"subtype": "noteOff",
			"noteNumber": 59,
			"velocity": 64
		}, {
			"deltaTime": 24,
			"channel": 0,
			"type": "channel",
			"noteNumber": 62,
			"velocity": 51,
			"subtype": "noteOn"
		}, {
			"deltaTime": 8,
			"channel": 0,
			"type": "channel",
			"subtype": "noteOff",
			"noteNumber": 67,
			"velocity": 64
		}, {
			"deltaTime": 56,
			"channel": 0,
			"type": "channel",
			"noteNumber": 59,
			"velocity": 67,
			"subtype": "noteOn"
		}, {
			"deltaTime": 8,
			"channel": 0,
			"type": "channel",
			"subtype": "noteOff",
			"noteNumber": 66,
			"velocity": 64
		}, {
			"deltaTime": 24,
			"channel": 0,
			"type": "channel",
			"noteNumber": 67,
			"velocity": 77,
			"subtype": "noteOn"
		}, {
			"deltaTime": 8,
			"channel": 0,
			"type": "channel",
			"subtype": "noteOff",
			"noteNumber": 62,
			"velocity": 64
		}, {
			"deltaTime": 56,
			"channel": 0,
			"type": "channel",
			"noteNumber": 66,
			"velocity": 72,
			"subtype": "noteOn"
		}, {
			"deltaTime": 8,
			"channel": 0,
			"type": "channel",
			"subtype": "noteOff",
			"noteNumber": 59,
			"velocity": 64
		}, {
			"deltaTime": 24,
			"channel": 0,
			"type": "channel",
			"noteNumber": 62,
			"velocity": 67,
			"subtype": "noteOn"
		}, {
			"deltaTime": 8,
			"channel": 0,
			"type": "channel",
			"subtype": "noteOff",
			"noteNumber": 67,
			"velocity": 64
		}, {
			"deltaTime": 56,
			"channel": 0,
			"type": "channel",
			"noteNumber": 59,
			"velocity": 45,
			"subtype": "noteOn"
		}, {
			"deltaTime": 8,
			"channel": 0,
			"type": "channel",
			"subtype": "noteOff",
			"noteNumber": 66,
			"velocity": 64
		}, {
			"deltaTime": 24,
			"channel": 0,
			"type": "channel",
			"noteNumber": 67,
			"velocity": 36,
			"subtype": "noteOn"
		}, {
			"deltaTime": 8,
			"channel": 0,
			"type": "channel",
			"subtype": "noteOff",
			"noteNumber": 62,
			"velocity": 64
		}, {
			"deltaTime": 56,
			"channel": 0,
			"type": "channel",
			"noteNumber": 66,
			"velocity": 49,
			"subtype": "noteOn"
		}, {
			"deltaTime": 8,
			"channel": 0,
			"type": "channel",
			"subtype": "noteOff",
			"noteNumber": 59,
			"velocity": 64
		}, {
			"deltaTime": 24,
			"channel": 0,
			"type": "channel",
			"noteNumber": 62,
			"velocity": 54,
			"subtype": "noteOn"
		}, {
			"deltaTime": 8,
			"channel": 0,
			"type": "channel",
			"subtype": "noteOff",
			"noteNumber": 67,
			"velocity": 64
		}, {
			"deltaTime": 56,
			"channel": 0,
			"type": "channel",
			"noteNumber": 59,
			"velocity": 71,
			"subtype": "noteOn"
		}, {
			"deltaTime": 8,
			"channel": 0,
			"type": "channel",
			"subtype": "noteOff",
			"noteNumber": 66,
			"velocity": 64
		}, {
			"deltaTime": 24,
			"channel": 0,
			"type": "channel",
			"noteNumber": 67,
			"velocity": 58,
			"subtype": "noteOn"
		}, {
			"deltaTime": 8,
			"channel": 0,
			"type": "channel",
			"subtype": "noteOff",
			"noteNumber": 62,
			"velocity": 64
		}, {
			"deltaTime": 56,
			"channel": 0,
			"type": "channel",
			"noteNumber": 66,
			"velocity": 56,
			"subtype": "noteOn"
		}, {
			"deltaTime": 8,
			"channel": 0,
			"type": "channel",
			"subtype": "noteOff",
			"noteNumber": 59,
			"velocity": 64
		}, {
			"deltaTime": 24,
			"channel": 0,
			"type": "channel",
			"noteNumber": 62,
			"velocity": 28,
			"subtype": "noteOn"
		}, {
			"deltaTime": 8,
			"channel": 0,
			"type": "channel",
			"subtype": "noteOff",
			"noteNumber": 67,
			"velocity": 64
		}, {
			"deltaTime": 56,
			"channel": 0,
			"type": "channel",
			"noteNumber": 59,
			"velocity": 67,
			"subtype": "noteOn"
		}, {
			"deltaTime": 8,
			"channel": 0,
			"type": "channel",
			"subtype": "noteOff",
			"noteNumber": 66,
			"velocity": 64
		}, {
			"deltaTime": 24,
			"channel": 0,
			"type": "channel",
			"noteNumber": 67,
			"velocity": 57,
			"subtype": "noteOn"
		}, {
			"deltaTime": 8,
			"channel": 0,
			"type": "channel",
			"subtype": "noteOff",
			"noteNumber": 62,
			"velocity": 64
		}, {
			"deltaTime": 56,
			"channel": 0,
			"type": "channel",
			"noteNumber": 66,
			"velocity": 34,
			"subtype": "noteOn"
		}, {
			"deltaTime": 8,
			"channel": 0,
			"type": "channel",
			"subtype": "noteOff",
			"noteNumber": 59,
			"velocity": 64
		}, {
			"deltaTime": 24,
			"channel": 0,
			"type": "channel",
			"noteNumber": 62,
			"velocity": 50,
			"subtype": "noteOn"
		}, {
			"deltaTime": 8,
			"channel": 0,
			"type": "channel",
			"subtype": "noteOff",
			"noteNumber": 67,
			"velocity": 64
		}, {
			"deltaTime": 56,
			"channel": 0,
			"type": "channel",
			"noteNumber": 59,
			"velocity": 47,
			"subtype": "noteOn"
		}, {
			"deltaTime": 8,
			"channel": 0,
			"type": "channel",
			"subtype": "noteOff",
			"noteNumber": 66,
			"velocity": 64
		}, {
			"deltaTime": 24,
			"channel": 0,
			"type": "channel",
			"noteNumber": 67,
			"velocity": 62,
			"subtype": "noteOn"
		}, {
			"deltaTime": 8,
			"channel": 0,
			"type": "channel",
			"subtype": "noteOff",
			"noteNumber": 62,
			"velocity": 64
		}, {
			"deltaTime": 56,
			"channel": 0,
			"type": "channel",
			"noteNumber": 66,
			"velocity": 49,
			"subtype": "noteOn"
		}, {
			"deltaTime": 8,
			"channel": 0,
			"type": "channel",
			"subtype": "noteOff",
			"noteNumber": 59,
			"velocity": 64
		}, {
			"deltaTime": 24,
			"channel": 0,
			"type": "channel",
			"noteNumber": 62,
			"velocity": 68,
			"subtype": "noteOn"
		}, {
			"deltaTime": 8,
			"channel": 0,
			"type": "channel",
			"subtype": "noteOff",
			"noteNumber": 67,
			"velocity": 64
		}, {
			"deltaTime": 56,
			"channel": 0,
			"type": "channel",
			"noteNumber": 59,
			"velocity": 36,
			"subtype": "noteOn"
		}, {
			"deltaTime": 8,
			"channel": 0,
			"type": "channel",
			"subtype": "noteOff",
			"noteNumber": 66,
			"velocity": 64
		}, {
			"deltaTime": 24,
			"channel": 0,
			"type": "channel",
			"noteNumber": 67,
			"velocity": 54,
			"subtype": "noteOn"
		}, {
			"deltaTime": 8,
			"channel": 0,
			"type": "channel",
			"subtype": "noteOff",
			"noteNumber": 62,
			"velocity": 64
		}, {
			"deltaTime": 56,
			"channel": 0,
			"type": "channel",
			"noteNumber": 66,
			"velocity": 67,
			"subtype": "noteOn"
		}, {
			"deltaTime": 8,
			"channel": 0,
			"type": "channel",
			"subtype": "noteOff",
			"noteNumber": 59,
			"velocity": 64
		}, {
			"deltaTime": 24,
			"channel": 0,
			"type": "channel",
			"noteNumber": 62,
			"velocity": 51,
			"subtype": "noteOn"
		}, {
			"deltaTime": 8,
			"channel": 0,
			"type": "channel",
			"subtype": "noteOff",
			"noteNumber": 67,
			"velocity": 64
		}, {
			"deltaTime": 56,
			"channel": 0,
			"type": "channel",
			"subtype": "noteOff",
			"noteNumber": 66,
			"velocity": 64
		}, {
			"deltaTime": 0,
			"channel": 0,
			"type": "channel",
			"noteNumber": 59,
			"velocity": 67,
			"subtype": "noteOn"
		}, {
			"deltaTime": 16,
			"channel": 0,
			"type": "channel",
			"subtype": "noteOff",
			"noteNumber": 62,
			"velocity": 64
		}, {
			"deltaTime": 16,
			"channel": 0,
			"type": "channel",
			"subtype": "noteOff",
			"noteNumber": 59,
			"velocity": 64
		}, {
			"deltaTime": 0,
			"type": "meta",
			"subtype": "endOfTrack"
		}]
	]
}